<mxfile host="app.diagrams.net" modified="2021-09-27T15:08:06.089Z" agent="5.0 (Windows NT 10.0; Win64; x64) AppleWebKit/537.36 (KHTML, like Gecko) Chrome/94.0.4606.61 Safari/537.36" etag="CxUh0LDK9J2gmwzDHxj9" version="14.7.3" type="github">
  <diagram id="SNIl6PTKfTN1p4X5pCDb" name="Page-1">
    <mxGraphModel dx="1038" dy="547" grid="1" gridSize="10" guides="1" tooltips="1" connect="1" arrows="1" fold="1" page="1" pageScale="1" pageWidth="827" pageHeight="1169" math="0" shadow="0">
      <root>
        <mxCell id="0" />
        <mxCell id="1" parent="0" />
        <mxCell id="uF8HqUZdWJPGoQ06jfNw-22" value="" style="rounded=0;whiteSpace=wrap;html=1;verticalAlign=top;fillColor=none;" vertex="1" parent="1">
          <mxGeometry x="330" y="70" width="390" height="270" as="geometry" />
        </mxCell>
        <mxCell id="uF8HqUZdWJPGoQ06jfNw-3" value="" style="endArrow=classic;html=1;endSize=6;" edge="1" parent="1">
          <mxGeometry width="50" height="50" relative="1" as="geometry">
            <mxPoint x="244" y="200" as="sourcePoint" />
            <mxPoint x="324" y="200" as="targetPoint" />
          </mxGeometry>
        </mxCell>
        <mxCell id="uF8HqUZdWJPGoQ06jfNw-9" value="&lt;span&gt;Variables&lt;/span&gt;" style="rounded=0;whiteSpace=wrap;html=1;verticalAlign=middle;fontStyle=1" vertex="1" parent="1">
          <mxGeometry x="360" y="250" width="120" height="60" as="geometry" />
        </mxCell>
        <mxCell id="uF8HqUZdWJPGoQ06jfNw-11" value="" style="group" vertex="1" connectable="0" parent="1">
          <mxGeometry x="350" y="110" width="140" height="100" as="geometry" />
        </mxCell>
        <mxCell id="uF8HqUZdWJPGoQ06jfNw-7" value="&lt;b&gt;Sim&lt;/b&gt;" style="rounded=0;whiteSpace=wrap;html=1;verticalAlign=top;" vertex="1" parent="uF8HqUZdWJPGoQ06jfNw-11">
          <mxGeometry width="140" height="100" as="geometry" />
        </mxCell>
        <mxCell id="uF8HqUZdWJPGoQ06jfNw-10" value="&lt;b&gt;Variables&lt;/b&gt;" style="rounded=0;whiteSpace=wrap;html=1;verticalAlign=middle;" vertex="1" parent="uF8HqUZdWJPGoQ06jfNw-11">
          <mxGeometry x="10" y="30" width="120" height="60" as="geometry" />
        </mxCell>
        <mxCell id="uF8HqUZdWJPGoQ06jfNw-12" value="" style="group" vertex="1" connectable="0" parent="1">
          <mxGeometry x="550" y="110" width="140" height="100" as="geometry" />
        </mxCell>
        <mxCell id="uF8HqUZdWJPGoQ06jfNw-5" value="&lt;b&gt;GUI&lt;/b&gt;" style="rounded=0;whiteSpace=wrap;html=1;verticalAlign=top;" vertex="1" parent="uF8HqUZdWJPGoQ06jfNw-12">
          <mxGeometry width="140" height="100" as="geometry" />
        </mxCell>
        <mxCell id="uF8HqUZdWJPGoQ06jfNw-6" value="&lt;b&gt;Variables&lt;/b&gt;" style="rounded=0;whiteSpace=wrap;html=1;verticalAlign=middle;" vertex="1" parent="uF8HqUZdWJPGoQ06jfNw-12">
          <mxGeometry x="10" y="30" width="120" height="60" as="geometry" />
        </mxCell>
        <mxCell id="uF8HqUZdWJPGoQ06jfNw-13" value="" style="group" vertex="1" connectable="0" parent="1">
          <mxGeometry x="550" y="220" width="140" height="100" as="geometry" />
        </mxCell>
        <mxCell id="uF8HqUZdWJPGoQ06jfNw-14" value="&lt;b&gt;Create_bot&lt;br&gt;&lt;br&gt;&lt;/b&gt;" style="rounded=0;whiteSpace=wrap;html=1;verticalAlign=top;" vertex="1" parent="uF8HqUZdWJPGoQ06jfNw-13">
          <mxGeometry width="140" height="100" as="geometry" />
        </mxCell>
        <mxCell id="uF8HqUZdWJPGoQ06jfNw-15" value="&lt;b&gt;Variables&lt;/b&gt;" style="rounded=0;whiteSpace=wrap;html=1;verticalAlign=middle;" vertex="1" parent="uF8HqUZdWJPGoQ06jfNw-13">
          <mxGeometry x="10" y="30" width="120" height="60" as="geometry" />
        </mxCell>
        <mxCell id="uF8HqUZdWJPGoQ06jfNw-16" value="" style="endArrow=classic;startArrow=classic;html=1;" edge="1" parent="1" source="uF8HqUZdWJPGoQ06jfNw-9" target="uF8HqUZdWJPGoQ06jfNw-10">
          <mxGeometry width="50" height="50" relative="1" as="geometry">
            <mxPoint x="410" y="230" as="sourcePoint" />
            <mxPoint x="460" y="180" as="targetPoint" />
          </mxGeometry>
        </mxCell>
        <mxCell id="uF8HqUZdWJPGoQ06jfNw-17" value="" style="endArrow=classic;html=1;" edge="1" parent="1" source="uF8HqUZdWJPGoQ06jfNw-10" target="uF8HqUZdWJPGoQ06jfNw-6">
          <mxGeometry width="50" height="50" relative="1" as="geometry">
            <mxPoint x="390" y="290" as="sourcePoint" />
            <mxPoint x="440" y="240" as="targetPoint" />
          </mxGeometry>
        </mxCell>
        <mxCell id="uF8HqUZdWJPGoQ06jfNw-18" value="" style="endArrow=classic;html=1;" edge="1" parent="1" source="uF8HqUZdWJPGoQ06jfNw-10" target="uF8HqUZdWJPGoQ06jfNw-15">
          <mxGeometry width="50" height="50" relative="1" as="geometry">
            <mxPoint x="390" y="290" as="sourcePoint" />
            <mxPoint x="440" y="240" as="targetPoint" />
          </mxGeometry>
        </mxCell>
        <mxCell id="uF8HqUZdWJPGoQ06jfNw-19" value="" style="group" vertex="1" connectable="0" parent="1">
          <mxGeometry x="100" y="140" width="140" height="100" as="geometry" />
        </mxCell>
        <mxCell id="uF8HqUZdWJPGoQ06jfNw-20" value="&lt;b&gt;Simulation &amp;amp; Variables&lt;/b&gt;" style="rounded=0;whiteSpace=wrap;html=1;verticalAlign=top;" vertex="1" parent="uF8HqUZdWJPGoQ06jfNw-19">
          <mxGeometry width="140" height="100" as="geometry" />
        </mxCell>
        <mxCell id="uF8HqUZdWJPGoQ06jfNw-21" value="&lt;b&gt;create bot&lt;/b&gt;" style="rounded=0;whiteSpace=wrap;html=1;verticalAlign=middle;" vertex="1" parent="uF8HqUZdWJPGoQ06jfNw-19">
          <mxGeometry x="10" y="30" width="120" height="60" as="geometry" />
        </mxCell>
      </root>
    </mxGraphModel>
  </diagram>
</mxfile>
